<svg width="24" height="24" viewBox="0 0 24 24" fill="none" xmlns="http://www.w3.org/2000/svg">
<path d="M11.9998 22.0005C7.95337 22.0028 4.30431 19.5664 2.75548 15.8281C1.20665 12.0898 2.06336 7.78655 4.92581 4.92647C7.45311 2.39917 11.1367 1.41215 14.5891 2.3372C18.0414 3.26226 20.738 5.95885 21.6631 9.4112C22.5881 12.8636 21.6011 16.5472 19.0738 19.0745C17.2013 20.9555 14.654 22.0091 11.9998 22.0005ZM3.99981 12.1725C4.04713 16.5737 7.64092 20.11 12.0424 20.0865C16.4438 20.0627 19.9994 16.488 19.9994 12.0865C19.9994 7.68497 16.4438 4.11024 12.0424 4.08647C7.64092 4.06293 4.04713 7.59923 3.99981 12.0005V12.1725ZM9.40881 16.0005L7.99981 14.5905L10.5898 12.0005L7.99981 9.41047L9.40981 8.00047L11.9998 10.5905L14.5898 8.00047L15.9998 9.41047L13.4098 12.0005L15.9998 14.5905L14.5908 16.0005L11.9998 13.4105L9.40981 16.0005H9.40881Z" fill="#088384"/>
</svg>
